<!-- Generated by IcoMoon.io -->
<svg version="1.1" xmlns="http://www.w3.org/2000/svg" width="32" height="32" viewBox="0 0 32 32">
<title>cart</title>
<path d="M12.162 23.919c-2.228 0-4.040 1.813-4.040 4.040s1.813 4.040 4.040 4.040c2.228 0 4.040-1.813 4.040-4.040s-1.813-4.040-4.040-4.040zM12.162 29.576c-0.891 0-1.616-0.725-1.616-1.616s0.725-1.616 1.616-1.616c0.891 0 1.616 0.725 1.616 1.616s-0.725 1.616-1.616 1.616z"></path>
<path d="M24.121 23.919c-2.228 0-4.040 1.813-4.040 4.040s1.813 4.040 4.040 4.040c2.228 0 4.040-1.813 4.040-4.040s-1.813-4.040-4.040-4.040zM24.121 29.576c-0.891 0-1.616-0.725-1.616-1.616s0.725-1.616 1.616-1.616c0.891 0 1.616 0.725 1.616 1.616s-0.725 1.616-1.616 1.616z"></path>
<path d="M31.13 7.892c-0.23-0.289-0.579-0.458-0.949-0.458h-21.224l-1.102-5.568c-0.097-0.488-0.481-0.867-0.971-0.957l-4.848-0.889c-0.66-0.122-1.29 0.315-1.411 0.974s0.315 1.29 0.974 1.411l4.038 0.74 3.557 17.979c0.112 0.568 0.611 0.977 1.189 0.977h16.969c0.564 0 1.054-0.389 1.181-0.94l2.828-12.242c0.083-0.36-0.002-0.738-0.232-1.027zM26.389 19.677h-15.010l-1.942-9.818h19.22l-2.268 9.818z"></path>
</svg>
