<!-- Generated by IcoMoon.io -->
<svg version="1.1" xmlns="http://www.w3.org/2000/svg" width="32" height="32" viewBox="0 0 32 32">
<title>Forma-1</title>
<path d="M31.604 29.723l-9.097-9.1c1.77-2.169 2.843-4.968 2.843-8.017 0-7.028-5.697-12.725-12.725-12.725s-12.725 5.697-12.725 12.725c0 7.028 5.697 12.725 12.725 12.725 3.039 0 5.828-1.065 8.017-2.842l-0.024 0.019 9.112 9.1c0.239 0.242 0.57 0.392 0.937 0.392s0.698-0.15 0.937-0.392l0-0c0.24-0.242 0.389-0.575 0.389-0.942s-0.149-0.701-0.389-0.943l0 0zM12.663 22.665c-0.001 0-0.003 0-0.005 0-5.523 0-10.001-4.477-10.001-10.001s4.478-10.001 10.001-10.001c5.523 0 10.001 4.478 10.001 10.001v0c-0.003 5.52-4.476 9.995-9.996 10.001h-0.001z"></path>
</svg>
